<svg width="233" height="38" viewBox="0 0 233 38" fill="none" xmlns="http://www.w3.org/2000/svg">
<g clip-path="url(#clip0_1_31)">
<path d="M1.8948 13.238C1.37978 28.4388 7.36261 36.8989 21.0854 37.335C29.7626 38.0715 36.4081 36.0354 40.76 30.868C44.4639 27.3212 49.0991 14.6311 44.0716 8.89893" fill="#292F33"/>
<path d="M2.89657 17.6703C-2.75407 6.0918 16.3567 1.47464 29.7292 3.1991C32.1034 2.08837 47.4777 1.46433 44.0717 8.89867C51.4296 17.8317 37.4837 29.5854 14.9069 25.097C5.83734 26.642 -2.01244 24.1648 2.89657 17.6703Z" fill="#66757F"/>
<path d="M4.47118 15.6407C7.43684 28.1832 43.3347 26.0853 43.5647 15.0338C42.5896 2.50764 3.27289 3.3351 4.47118 15.6407Z" fill="#FFCC4D"/>
<path d="M14.8842 5.96916C16.9262 3.62324 22.9314 2.46873 25.6559 4.0919C26.2189 8.57946 22.2516 12.6996 17.2335 13.5443C13.4147 10.4971 9.36573 10.0147 7.36745 12.085C6.90908 12.6644 6.71938 13.4584 6.77174 14.4533C5.07217 12.3074 5.26873 10.043 7.60693 7.64298C9.62582 5.89877 12.073 5.40178 14.8842 5.96916Z" fill="#77B255"/>
<path d="M8.4502 17.7515C14.1283 23.0845 26.7661 24.2605 28.3515 21.4648C28.5558 20.4854 27.5111 19.8133 26.2811 19.1746C23.5008 20.9403 14.8983 20.1772 8.4502 17.7515Z" fill="#B27962"/>
<path d="M32.6621 10.0078L36.3222 11.2353C40.0003 12.6233 38.172 17.4842 34.4922 16.1005L30.7703 14.855C27.7385 13.4121 29.5505 9.0576 32.6621 10.0078Z" fill="#FFE8B6"/>
<path d="M31.6853 17.7021L34.7059 17.7124C36.0792 17.7124 36.0792 20.2824 34.7059 20.2824L31.6853 20.297C30.1505 20.297 30.1505 17.7021 31.6853 17.7021Z" fill="#FFE8B6"/>
<path d="M8.45086 17.751C6.95901 16.2146 6.4706 14.6146 6.91867 12.9553C7.05801 12.4324 7.37867 11.9761 7.82339 11.6678C10.8277 9.6077 15.9607 11.3596 20.3556 16.6171C21.4569 17.4755 24.2835 18.206 26.2783 19.1725C23.3006 20.9837 14.6328 20.1167 8.45429 17.7579" fill="#D99E82"/>
<path d="M17.2334 13.5444C17.6713 13.8786 18.0884 14.2392 18.4823 14.6242C22.5733 14.7856 25.8755 12.959 27.7089 10.2465C29.2428 7.65684 28.2059 5.29032 25.6557 4.09375C26.1313 8.80276 22.0549 12.7693 17.2334 13.5444Z" fill="#5C913B"/>
</g>
<path d="M66.112 27C65.952 27 65.808 26.944 65.68 26.832C65.552 26.704 65.488 26.552 65.488 26.376V10.824C65.488 10.648 65.552 10.504 65.68 10.392C65.808 10.264 65.952 10.2 66.112 10.2H73.768C75.224 10.2 76.416 10.392 77.344 10.776C78.272 11.16 78.96 11.712 79.408 12.432C79.856 13.152 80.08 14.04 80.08 15.096C80.08 15.64 79.968 16.128 79.744 16.56C79.536 16.976 79.28 17.328 78.976 17.616C78.672 17.888 78.384 18.088 78.112 18.216C78.736 18.488 79.28 18.952 79.744 19.608C80.208 20.248 80.44 20.984 80.44 21.816C80.44 22.936 80.184 23.88 79.672 24.648C79.176 25.416 78.448 26 77.488 26.4C76.544 26.8 75.384 27 74.008 27H66.112ZM70.648 23.376H73.456C74 23.376 74.4 23.216 74.656 22.896C74.912 22.56 75.04 22.192 75.04 21.792C75.04 21.376 74.904 21.016 74.632 20.712C74.36 20.392 73.968 20.232 73.456 20.232H70.648V23.376ZM70.648 16.704H73.216C73.728 16.704 74.104 16.56 74.344 16.272C74.584 15.984 74.704 15.648 74.704 15.264C74.704 14.88 74.584 14.544 74.344 14.256C74.104 13.968 73.728 13.824 73.216 13.824H70.648V16.704ZM86.362 27.24C85.482 27.24 84.69 27.072 83.986 26.736C83.298 26.4 82.754 25.952 82.354 25.392C81.97 24.816 81.778 24.176 81.778 23.472C81.778 22.32 82.242 21.416 83.17 20.76C84.114 20.088 85.37 19.624 86.938 19.368L89.698 18.936V18.768C89.698 18.272 89.618 17.904 89.458 17.664C89.314 17.408 89.002 17.28 88.522 17.28C88.186 17.28 87.914 17.344 87.706 17.472C87.498 17.6 87.306 17.784 87.13 18.024C86.97 18.2 86.762 18.288 86.506 18.288H83.122C82.946 18.288 82.81 18.24 82.714 18.144C82.618 18.048 82.578 17.92 82.594 17.76C82.61 17.472 82.73 17.136 82.954 16.752C83.178 16.352 83.522 15.968 83.986 15.6C84.466 15.216 85.082 14.904 85.834 14.664C86.586 14.408 87.49 14.28 88.546 14.28C89.618 14.28 90.538 14.4 91.306 14.64C92.074 14.88 92.706 15.216 93.202 15.648C93.698 16.08 94.066 16.608 94.306 17.232C94.546 17.84 94.666 18.52 94.666 19.272V26.376C94.666 26.552 94.602 26.704 94.474 26.832C94.362 26.944 94.218 27 94.042 27H90.538C90.378 27 90.234 26.944 90.106 26.832C89.978 26.704 89.914 26.552 89.914 26.376V25.608C89.706 25.928 89.426 26.208 89.074 26.448C88.738 26.688 88.338 26.88 87.874 27.024C87.426 27.168 86.922 27.24 86.362 27.24ZM87.754 24.096C88.154 24.096 88.498 24.016 88.786 23.856C89.09 23.68 89.33 23.416 89.506 23.064C89.682 22.712 89.77 22.272 89.77 21.744V21.576L88.042 21.912C87.45 22.024 87.034 22.192 86.794 22.416C86.554 22.624 86.434 22.856 86.434 23.112C86.434 23.304 86.49 23.472 86.602 23.616C86.714 23.76 86.866 23.88 87.058 23.976C87.266 24.056 87.498 24.096 87.754 24.096ZM97.6767 27C97.5007 27 97.3487 26.944 97.2207 26.832C97.1087 26.704 97.0527 26.552 97.0527 26.376V15.144C97.0527 14.968 97.1087 14.824 97.2207 14.712C97.3487 14.584 97.5007 14.52 97.6767 14.52H101.157C101.333 14.52 101.477 14.584 101.589 14.712C101.717 14.824 101.781 14.968 101.781 15.144V16.008C102.197 15.528 102.749 15.12 103.437 14.784C104.125 14.448 104.909 14.28 105.789 14.28C106.653 14.28 107.437 14.48 108.141 14.88C108.845 15.28 109.413 15.88 109.845 16.68C110.277 17.48 110.493 18.488 110.493 19.704V26.376C110.493 26.552 110.429 26.704 110.301 26.832C110.173 26.944 110.021 27 109.845 27H106.053C105.877 27 105.725 26.944 105.597 26.832C105.485 26.704 105.429 26.552 105.429 26.376V19.872C105.429 19.28 105.285 18.824 104.997 18.504C104.709 18.184 104.301 18.024 103.773 18.024C103.245 18.024 102.829 18.184 102.525 18.504C102.221 18.824 102.069 19.28 102.069 19.872V26.376C102.069 26.552 102.005 26.704 101.877 26.832C101.765 26.944 101.621 27 101.445 27H97.6767ZM121.538 31.56C121.378 31.56 121.234 31.496 121.106 31.368C120.978 31.256 120.914 31.112 120.914 30.936V25.704C120.562 26.232 120.098 26.624 119.522 26.88C118.962 27.12 118.314 27.24 117.578 27.24C116.842 27.24 116.162 27.12 115.538 26.88C114.93 26.64 114.402 26.288 113.954 25.824C113.506 25.344 113.154 24.76 112.898 24.072C112.642 23.384 112.498 22.592 112.466 21.696C112.45 21.344 112.442 21.032 112.442 20.76C112.442 20.488 112.45 20.184 112.466 19.848C112.514 18.904 112.666 18.08 112.922 17.376C113.178 16.672 113.53 16.096 113.978 15.648C114.426 15.184 114.954 14.84 115.562 14.616C116.17 14.392 116.842 14.28 117.578 14.28C118.442 14.28 119.17 14.44 119.762 14.76C120.37 15.064 120.858 15.456 121.226 15.936V15.144C121.226 14.968 121.282 14.824 121.394 14.712C121.522 14.584 121.674 14.52 121.85 14.52H125.234C125.41 14.52 125.554 14.584 125.666 14.712C125.794 14.824 125.858 14.968 125.858 15.144V30.936C125.858 31.112 125.794 31.256 125.666 31.368C125.554 31.496 125.41 31.56 125.234 31.56H121.538ZM119.21 23.496C119.61 23.496 119.93 23.416 120.17 23.256C120.41 23.096 120.586 22.888 120.698 22.632C120.826 22.376 120.898 22.08 120.914 21.744C120.946 21.408 120.962 21.112 120.962 20.856C120.962 20.584 120.946 20.28 120.914 19.944C120.898 19.592 120.834 19.272 120.722 18.984C120.626 18.696 120.458 18.464 120.218 18.288C119.978 18.112 119.642 18.024 119.21 18.024C118.81 18.024 118.49 18.112 118.25 18.288C118.01 18.448 117.834 18.68 117.722 18.984C117.626 19.272 117.562 19.608 117.53 19.992C117.482 20.504 117.482 21.016 117.53 21.528C117.562 21.912 117.626 22.256 117.722 22.56C117.834 22.848 118.01 23.08 118.25 23.256C118.49 23.416 118.81 23.496 119.21 23.496ZM132.925 27.24C132.061 27.24 131.269 27.04 130.549 26.64C129.845 26.24 129.285 25.64 128.869 24.84C128.453 24.04 128.245 23.032 128.245 21.816V15.144C128.245 14.968 128.301 14.824 128.413 14.712C128.541 14.584 128.693 14.52 128.869 14.52H132.661C132.837 14.52 132.981 14.584 133.093 14.712C133.221 14.824 133.285 14.968 133.285 15.144V21.648C133.285 22.88 133.837 23.496 134.941 23.496C135.469 23.496 135.877 23.336 136.165 23.016C136.469 22.696 136.621 22.24 136.621 21.648V15.144C136.621 14.968 136.677 14.824 136.789 14.712C136.917 14.584 137.069 14.52 137.245 14.52H141.037C141.197 14.52 141.341 14.584 141.469 14.712C141.597 14.824 141.661 14.968 141.661 15.144V26.376C141.661 26.552 141.597 26.704 141.469 26.832C141.341 26.944 141.197 27 141.037 27H137.533C137.357 27 137.205 26.944 137.077 26.832C136.965 26.704 136.909 26.552 136.909 26.376V25.512C136.509 26.104 135.965 26.544 135.277 26.832C134.589 27.104 133.805 27.24 132.925 27.24ZM150.259 27.24C148.259 27.24 146.667 26.728 145.483 25.704C144.315 24.664 143.715 23.08 143.683 20.952C143.683 20.888 143.683 20.808 143.683 20.712C143.683 20.6 143.683 20.52 143.683 20.472C143.731 19.144 144.019 18.024 144.547 17.112C145.091 16.184 145.843 15.48 146.803 15C147.779 14.52 148.923 14.28 150.235 14.28C151.707 14.28 152.923 14.576 153.883 15.168C154.859 15.744 155.587 16.52 156.067 17.496C156.547 18.456 156.787 19.536 156.787 20.736V21.408C156.787 21.568 156.723 21.712 156.595 21.84C156.467 21.968 156.315 22.032 156.139 22.032H148.747C148.747 22.032 148.747 22.048 148.747 22.08C148.747 22.112 148.747 22.144 148.747 22.176C148.747 22.56 148.795 22.904 148.891 23.208C149.003 23.496 149.171 23.728 149.395 23.904C149.619 24.064 149.891 24.144 150.211 24.144C150.419 24.144 150.595 24.112 150.739 24.048C150.883 23.984 151.003 23.904 151.099 23.808C151.211 23.696 151.307 23.592 151.387 23.496C151.531 23.352 151.651 23.264 151.747 23.232C151.843 23.184 151.987 23.16 152.179 23.16H155.947C156.091 23.16 156.211 23.208 156.307 23.304C156.419 23.4 156.467 23.52 156.451 23.664C156.435 23.952 156.299 24.304 156.043 24.72C155.787 25.12 155.403 25.512 154.891 25.896C154.395 26.28 153.755 26.6 152.971 26.856C152.187 27.112 151.283 27.24 150.259 27.24ZM148.747 19.344H151.723V19.296C151.723 18.864 151.667 18.496 151.555 18.192C151.443 17.888 151.275 17.664 151.051 17.52C150.827 17.36 150.555 17.28 150.235 17.28C149.915 17.28 149.643 17.36 149.419 17.52C149.195 17.664 149.027 17.888 148.915 18.192C148.803 18.496 148.747 18.864 148.747 19.296V19.344ZM165.796 27C164.708 27 163.748 26.84 162.916 26.52C162.1 26.2 161.46 25.68 160.996 24.96C160.548 24.224 160.324 23.256 160.324 22.056V18.192H158.428C158.252 18.192 158.1 18.136 157.972 18.024C157.86 17.896 157.804 17.744 157.804 17.568V15.144C157.804 14.968 157.86 14.824 157.972 14.712C158.1 14.584 158.252 14.52 158.428 14.52H160.324V10.584C160.324 10.408 160.38 10.264 160.492 10.152C160.62 10.024 160.772 9.96 160.948 9.96H164.428C164.604 9.96 164.748 10.024 164.86 10.152C164.988 10.264 165.052 10.408 165.052 10.584V14.52H168.076C168.252 14.52 168.396 14.584 168.508 14.712C168.636 14.824 168.7 14.968 168.7 15.144V17.568C168.7 17.744 168.636 17.896 168.508 18.024C168.396 18.136 168.252 18.192 168.076 18.192H165.052V21.648C165.052 22.112 165.148 22.48 165.34 22.752C165.532 23.008 165.836 23.136 166.252 23.136H168.268C168.444 23.136 168.588 23.2 168.7 23.328C168.828 23.44 168.892 23.584 168.892 23.76V26.376C168.892 26.552 168.828 26.704 168.7 26.832C168.588 26.944 168.444 27 168.268 27H165.796ZM179.02 27.24C178.156 27.24 177.428 27.104 176.836 26.832C176.26 26.544 175.772 26.168 175.372 25.704V26.376C175.372 26.552 175.308 26.704 175.18 26.832C175.068 26.944 174.924 27 174.748 27H171.364C171.188 27 171.036 26.944 170.908 26.832C170.796 26.704 170.74 26.552 170.74 26.376V10.584C170.74 10.408 170.796 10.264 170.908 10.152C171.036 10.024 171.188 9.96 171.364 9.96H175.06C175.22 9.96 175.364 10.024 175.492 10.152C175.62 10.264 175.684 10.408 175.684 10.584V15.552C176.068 15.168 176.532 14.864 177.076 14.64C177.636 14.4 178.284 14.28 179.02 14.28C179.772 14.28 180.452 14.408 181.06 14.664C181.668 14.904 182.196 15.256 182.644 15.72C183.092 16.184 183.444 16.768 183.7 17.472C183.956 18.16 184.1 18.952 184.132 19.848C184.148 20.184 184.156 20.48 184.156 20.736C184.156 20.992 184.148 21.296 184.132 21.648C184.084 22.592 183.932 23.416 183.676 24.12C183.42 24.824 183.068 25.408 182.62 25.872C182.172 26.336 181.644 26.68 181.036 26.904C180.444 27.128 179.772 27.24 179.02 27.24ZM177.388 23.496C177.804 23.496 178.124 23.416 178.348 23.256C178.588 23.08 178.756 22.848 178.852 22.56C178.964 22.256 179.036 21.912 179.068 21.528C179.116 21.016 179.116 20.504 179.068 19.992C179.036 19.608 178.964 19.272 178.852 18.984C178.756 18.68 178.588 18.448 178.348 18.288C178.124 18.112 177.804 18.024 177.388 18.024C176.988 18.024 176.668 18.104 176.428 18.264C176.188 18.424 176.004 18.632 175.876 18.888C175.764 19.144 175.7 19.44 175.684 19.776C175.668 20.112 175.66 20.408 175.66 20.664C175.66 20.92 175.668 21.224 175.684 21.576C175.7 21.928 175.756 22.248 175.852 22.536C175.964 22.824 176.14 23.056 176.38 23.232C176.636 23.408 176.972 23.496 177.388 23.496ZM186.88 27C186.704 27 186.552 26.944 186.424 26.832C186.312 26.704 186.256 26.552 186.256 26.376V15.144C186.256 14.968 186.312 14.824 186.424 14.712C186.552 14.584 186.704 14.52 186.88 14.52H190.432C190.608 14.52 190.76 14.584 190.888 14.712C191.016 14.824 191.08 14.968 191.08 15.144V26.376C191.08 26.552 191.016 26.704 190.888 26.832C190.76 26.944 190.608 27 190.432 27H186.88ZM186.928 12.96C186.752 12.96 186.6 12.904 186.472 12.792C186.36 12.664 186.304 12.512 186.304 12.336V9.816C186.304 9.64 186.36 9.488 186.472 9.36C186.6 9.232 186.752 9.168 186.928 9.168H190.384C190.56 9.168 190.712 9.232 190.84 9.36C190.968 9.488 191.032 9.64 191.032 9.816V12.336C191.032 12.512 190.968 12.664 190.84 12.792C190.712 12.904 190.56 12.96 190.384 12.96H186.928ZM200.601 27C199.513 27 198.553 26.84 197.721 26.52C196.905 26.2 196.265 25.68 195.801 24.96C195.353 24.224 195.129 23.256 195.129 22.056V18.192H193.233C193.057 18.192 192.905 18.136 192.777 18.024C192.665 17.896 192.609 17.744 192.609 17.568V15.144C192.609 14.968 192.665 14.824 192.777 14.712C192.905 14.584 193.057 14.52 193.233 14.52H195.129V10.584C195.129 10.408 195.185 10.264 195.297 10.152C195.425 10.024 195.577 9.96 195.753 9.96H199.233C199.409 9.96 199.553 10.024 199.665 10.152C199.793 10.264 199.857 10.408 199.857 10.584V14.52H202.881C203.057 14.52 203.201 14.584 203.313 14.712C203.441 14.824 203.505 14.968 203.505 15.144V17.568C203.505 17.744 203.441 17.896 203.313 18.024C203.201 18.136 203.057 18.192 202.881 18.192H199.857V21.648C199.857 22.112 199.953 22.48 200.145 22.752C200.337 23.008 200.641 23.136 201.057 23.136H203.073C203.249 23.136 203.393 23.2 203.505 23.328C203.633 23.44 203.697 23.584 203.697 23.76V26.376C203.697 26.552 203.633 26.704 203.505 26.832C203.393 26.944 203.249 27 203.073 27H200.601ZM211.665 27.24C209.665 27.24 208.073 26.728 206.889 25.704C205.721 24.664 205.121 23.08 205.089 20.952C205.089 20.888 205.089 20.808 205.089 20.712C205.089 20.6 205.089 20.52 205.089 20.472C205.137 19.144 205.425 18.024 205.953 17.112C206.497 16.184 207.249 15.48 208.209 15C209.185 14.52 210.329 14.28 211.641 14.28C213.113 14.28 214.329 14.576 215.289 15.168C216.265 15.744 216.993 16.52 217.473 17.496C217.953 18.456 218.193 19.536 218.193 20.736V21.408C218.193 21.568 218.129 21.712 218.001 21.84C217.873 21.968 217.721 22.032 217.545 22.032H210.153C210.153 22.032 210.153 22.048 210.153 22.08C210.153 22.112 210.153 22.144 210.153 22.176C210.153 22.56 210.201 22.904 210.297 23.208C210.409 23.496 210.577 23.728 210.801 23.904C211.025 24.064 211.297 24.144 211.617 24.144C211.825 24.144 212.001 24.112 212.145 24.048C212.289 23.984 212.409 23.904 212.505 23.808C212.617 23.696 212.713 23.592 212.793 23.496C212.937 23.352 213.057 23.264 213.153 23.232C213.249 23.184 213.393 23.16 213.585 23.16H217.353C217.497 23.16 217.617 23.208 217.713 23.304C217.825 23.4 217.873 23.52 217.857 23.664C217.841 23.952 217.705 24.304 217.449 24.72C217.193 25.12 216.809 25.512 216.297 25.896C215.801 26.28 215.161 26.6 214.377 26.856C213.593 27.112 212.689 27.24 211.665 27.24ZM210.153 19.344H213.129V19.296C213.129 18.864 213.073 18.496 212.961 18.192C212.849 17.888 212.681 17.664 212.457 17.52C212.233 17.36 211.961 17.28 211.641 17.28C211.321 17.28 211.049 17.36 210.825 17.52C210.601 17.664 210.433 17.888 210.321 18.192C210.209 18.496 210.153 18.864 210.153 19.296V19.344ZM225.666 27.24C224.578 27.24 223.65 27.128 222.882 26.904C222.114 26.664 221.482 26.368 220.986 26.016C220.506 25.664 220.154 25.304 219.93 24.936C219.706 24.552 219.586 24.216 219.57 23.928C219.554 23.752 219.602 23.608 219.714 23.496C219.842 23.368 219.978 23.304 220.122 23.304H223.602C223.618 23.304 223.642 23.312 223.674 23.328C223.706 23.328 223.738 23.344 223.77 23.376C223.978 23.44 224.17 23.544 224.346 23.688C224.538 23.832 224.746 23.96 224.97 24.072C225.21 24.184 225.49 24.24 225.81 24.24C226.082 24.24 226.322 24.184 226.53 24.072C226.754 23.944 226.866 23.768 226.866 23.544C226.866 23.352 226.802 23.184 226.674 23.04C226.562 22.896 226.314 22.76 225.93 22.632C225.546 22.488 224.93 22.336 224.082 22.176C223.298 22.016 222.578 21.784 221.922 21.48C221.282 21.16 220.77 20.736 220.386 20.208C220.018 19.68 219.834 19.032 219.834 18.264C219.834 17.608 220.05 16.976 220.482 16.368C220.914 15.76 221.554 15.264 222.402 14.88C223.266 14.48 224.322 14.28 225.57 14.28C226.514 14.28 227.346 14.392 228.066 14.616C228.802 14.84 229.418 15.12 229.914 15.456C230.426 15.792 230.81 16.152 231.066 16.536C231.338 16.92 231.482 17.264 231.498 17.568C231.514 17.744 231.466 17.896 231.354 18.024C231.242 18.136 231.114 18.192 230.97 18.192H227.826C227.778 18.192 227.722 18.192 227.658 18.192C227.61 18.176 227.57 18.152 227.538 18.12C227.314 18.072 227.106 17.984 226.914 17.856C226.738 17.712 226.546 17.584 226.338 17.472C226.13 17.344 225.866 17.28 225.546 17.28C225.274 17.28 225.05 17.344 224.874 17.472C224.714 17.6 224.634 17.768 224.634 17.976C224.634 18.152 224.69 18.312 224.802 18.456C224.914 18.6 225.17 18.736 225.57 18.864C225.97 18.992 226.602 19.128 227.466 19.272C228.586 19.448 229.482 19.744 230.154 20.16C230.826 20.56 231.306 21.032 231.594 21.576C231.882 22.12 232.026 22.664 232.026 23.208C232.026 24.024 231.778 24.736 231.282 25.344C230.802 25.952 230.082 26.424 229.122 26.76C228.178 27.08 227.026 27.24 225.666 27.24Z" fill="#45373D"/>
<defs>
<clipPath id="clip0_1_31">
<rect width="48" height="37.4936" fill="white" transform="translate(0 0.253418)"/>
</clipPath>
</defs>
</svg>
