<svg width="30.867188" height="32.000000" viewBox="0 0 30.8672 32" fill="none" xmlns="http://www.w3.org/2000/svg" xmlns:xlink="http://www.w3.org/1999/xlink">
	<desc>
			Created with Pixso.
	</desc>
	<defs>
		<clipPath id="clip1_917">
			<rect id="chevron-down" width="30.866972" height="32.000000" fill="white" fill-opacity="0"/>
		</clipPath>
	</defs>
	<rect id="chevron-down" width="30.866972" height="32.000000" fill="#FFFFFF" fill-opacity="0"/>
	<g clip-path="url(#clip1_917)">
		<path id="Vector" d="M15.0059 21.3331C14.7803 21.3345 14.5566 21.2897 14.3477 21.2013C14.1396 21.1129 13.9492 20.9826 13.7891 20.8179L6.93457 13.7117C6.77441 13.546 6.64844 13.3494 6.56152 13.133C6.47559 12.9166 6.43066 12.6846 6.43066 12.4503C6.43066 12.2161 6.47559 11.9841 6.56152 11.7677C6.64844 11.5513 6.77441 11.3546 6.93457 11.189C7.09473 11.0233 7.28418 10.8919 7.49316 10.8023C7.70117 10.7126 7.92578 10.6665 8.15137 10.6665C8.37695 10.6665 8.60059 10.7126 8.80957 10.8023C9.01855 10.8919 9.20801 11.0233 9.36816 11.189L15.0059 17.0694L20.6611 11.4199C20.8184 11.2382 21.0107 11.0922 21.2256 10.9909C21.4404 10.8896 21.6719 10.8354 21.9082 10.8315C22.1436 10.8277 22.3779 10.8743 22.5957 10.9684C22.8125 11.0626 23.0098 11.2022 23.1729 11.3787C23.3359 11.5551 23.4619 11.7646 23.543 11.994C23.625 12.2233 23.6602 12.4676 23.6455 12.7115C23.6318 12.9556 23.5703 13.194 23.4629 13.4119C23.3564 13.6298 23.208 13.8226 23.0264 13.9781L16.1709 20.8357C15.8574 21.1489 15.4414 21.3268 15.0059 21.3331Z" fill="#45373D" fill-opacity="1.000000" fill-rule="nonzero"/>
	</g>
</svg>
