<svg width="30" height="30" viewBox="0 0 30 30" fill="none" xmlns="http://www.w3.org/2000/svg">
<path d="M29 23.862C29 24.366 28.8878 24.884 28.6495 25.388C28.4111 25.892 28.1027 26.368 27.696 26.816C27.009 27.572 26.2519 28.118 25.3966 28.468C24.5553 28.818 23.644 29 22.6625 29C21.2324 29 19.7041 28.664 18.0916 27.978C16.4792 27.292 14.8668 26.368 13.2684 25.206C11.656 24.03 10.1277 22.728 8.6695 21.286C7.22534 19.83 5.92138 18.304 4.75764 16.708C3.60791 15.112 2.68252 13.516 2.00951 11.934C1.3365 10.338 1 8.812 1 7.356C1 6.404 1.16825 5.494 1.50476 4.654C1.84126 3.8 2.37406 3.016 3.11718 2.316C4.01452 1.434 4.99599 1 6.03355 1C6.42614 1 6.81873 1.084 7.16925 1.252C7.5338 1.42 7.85628 1.672 8.10866 2.036L11.3615 6.614C11.6139 6.964 11.7962 7.286 11.9224 7.594C12.0486 7.888 12.1187 8.182 12.1187 8.448C12.1187 8.784 12.0205 9.12 11.8242 9.442C11.642 9.764 11.3756 10.1 11.0391 10.436L9.97346 11.542C9.81923 11.696 9.74912 11.878 9.74912 12.102C9.74912 12.214 9.76315 12.312 9.79119 12.424C9.83325 12.536 9.87531 12.62 9.90336 12.704C10.1557 13.166 10.5904 13.768 11.2073 14.496C11.8383 15.224 12.5113 15.966 13.2404 16.708C13.9975 17.45 14.7266 18.136 15.4697 18.766C16.1988 19.382 16.8017 19.802 17.2784 20.054C17.3485 20.082 17.4326 20.124 17.5308 20.166C17.643 20.208 17.7551 20.222 17.8813 20.222C18.1197 20.222 18.302 20.138 18.4562 19.984L19.5218 18.934C19.8723 18.584 20.2088 18.318 20.5313 18.15C20.8538 17.954 21.1763 17.856 21.5268 17.856C21.7932 17.856 22.0736 17.912 22.3821 18.038C22.6905 18.164 23.013 18.346 23.3635 18.584L28.0045 21.874C28.3691 22.126 28.6214 22.42 28.7757 22.77C28.9159 23.12 29 23.47 29 23.862Z" stroke="#2F69FF" stroke-width="1.5" stroke-miterlimit="10"/>
</svg>
