<svg width="40" height="40" viewBox="0 0 40 40" fill="none" xmlns="http://www.w3.org/2000/svg">
<path d="M23.4553 2.88836L26.9749 9.98575C27.4548 10.9737 28.7347 11.9214 29.8146 12.1029L36.1939 13.1715C40.2734 13.8571 41.2333 16.8412 38.2936 19.785L33.3342 24.7854C32.4943 25.6323 32.0343 27.2655 32.2943 28.4349L33.7141 34.625C34.834 39.5246 32.2543 41.4199 27.9548 38.8592L21.9754 35.2904C20.8956 34.6452 19.1158 34.6452 18.0159 35.2904L12.0365 38.8592C7.75701 41.4199 5.15729 39.5045 6.27717 34.625L7.69701 28.4349C7.95699 27.2655 7.49704 25.6323 6.65713 24.7854L1.69768 19.785C-1.222 16.8412 -0.282103 13.8571 3.79745 13.1715L10.1767 12.1029C11.2366 11.9214 12.5165 10.9737 12.9964 9.98575L16.516 2.88836C18.4358 -0.962785 21.5555 -0.962785 23.4553 2.88836Z" fill="#FF9F1C"/>
</svg>
