<svg width="40.000000" height="40.000000" viewBox="0 0 40 40" fill="none" xmlns="http://www.w3.org/2000/svg" xmlns:xlink="http://www.w3.org/1999/xlink">
	<desc>
			Created with Pixso.
	</desc>
	<defs/>
	<rect id="vuesax/linear/user" width="40.000000" height="40.000000" fill="#FFFFFF" fill-opacity="0"/>
	<path id="Vector" d="M20 20C15.3984 20 11.667 16.269 11.667 11.6665C11.667 7.06421 15.3984 3.33325 20 3.33325C24.6025 3.33325 28.334 7.06421 28.334 11.6665C28.334 16.269 24.6025 20 20 20Z" stroke="#FF9F1C" stroke-opacity="1.000000" stroke-width="5.000000" stroke-linejoin="round"/>
	<path id="Vector" d="M34.3174 36.6667C34.3174 30.2166 27.9004 25 20 25C12.1006 25 5.68359 30.2166 5.68359 36.6667" stroke="#FF9F1C" stroke-opacity="1.000000" stroke-width="5.000000" stroke-linejoin="round" stroke-linecap="round"/>
	<g opacity="0.000000">
		<path id="Vector" d="M0 0L40 0L40 40L0 40L0 0ZM1 39L1 1L39 1L39 39L1 39Z" fill="#FF9F1C" fill-opacity="1.000000" fill-rule="evenodd"/>
	</g>
</svg>
